<?xml version="1.0" standalone="no"?>
<!DOCTYPE svg PUBLIC "-//W3C//DTD SVG 20010904//EN"
 "http://www.w3.org/TR/2001/REC-SVG-20010904/DTD/svg10.dtd">
<svg version="1.0" xmlns="http://www.w3.org/2000/svg"
 width="2436.000000pt" height="2436.000000pt" viewBox="0 0 2436.000000 2436.000000"
 preserveAspectRatio="xMidYMid meet">
<metadata>
Created by potrace 1.11, written by Peter Selinger 2001-2013
</metadata>
<g transform="translate(0.000000,2436.000000) scale(0.100000,-0.100000)"
fill="#000000" stroke="none">
<path d="M17725 20059 c-64 -6 -384 -7 -6455 -15 -6583 -9 -7623 -12 -7675
-18 -27 -3 -68 -8 -90 -11 -22 -2 -62 -7 -90 -11 -138 -17 -378 -79 -544 -140
-431 -160 -840 -451 -1139 -809 -52 -62 -323 -443 -385 -540 -17 -27 -34 -52
-38 -55 -3 -3 -32 -45 -65 -95 -32 -49 -62 -94 -67 -100 -17 -21 -237 -360
-333 -513 -49 -80 -66 -107 -134 -221 -75 -125 -92 -155 -192 -336 -60 -107
-177 -354 -202 -424 -124 -346 -145 -737 -60 -1083 3 -13 7 -34 10 -48 35
-179 184 -519 310 -705 62 -93 214 -342 214 -351 0 -2 11 -21 23 -42 28 -43
317 -535 355 -602 14 -25 33 -57 43 -72 11 -14 19 -28 19 -31 0 -3 28 -52 61
-109 34 -56 70 -116 79 -133 127 -219 355 -602 382 -640 64 -90 116 -198 133
-275 2 -8 9 -37 15 -65 15 -65 19 -235 8 -322 -15 -114 -62 -293 -99 -378 -54
-126 -92 -198 -174 -337 -54 -89 -106 -177 -116 -195 -10 -17 -29 -50 -43 -72
-15 -22 -26 -43 -26 -46 0 -5 -12 -26 -76 -125 -12 -19 -32 -54 -45 -77 -13
-22 -40 -67 -59 -100 -19 -32 -39 -67 -46 -78 -12 -21 -90 -154 -224 -380 -45
-77 -91 -153 -100 -170 -15 -26 -84 -144 -110 -185 -5 -8 -32 -53 -59 -100
-28 -47 -69 -110 -90 -140 -105 -145 -209 -328 -278 -490 -48 -114 -105 -290
-118 -365 -2 -16 -9 -55 -15 -85 -22 -115 -29 -294 -17 -440 6 -65 11 -103 31
-205 31 -157 133 -404 220 -530 40 -57 696 -1140 951 -1569 107 -179 202 -337
220 -366 65 -103 119 -201 188 -340 95 -193 212 -374 337 -525 58 -70 251
-254 322 -308 257 -192 553 -320 838 -363 19 -3 46 -8 60 -10 47 -10 15263
-20 15395 -10 409 30 785 140 1065 311 36 22 70 43 75 48 6 4 39 29 75 56 162
120 311 292 408 472 32 59 193 339 502 874 9 17 38 65 64 108 25 43 46 80 46
82 0 2 34 61 76 131 42 71 109 185 149 254 86 148 277 477 550 945 109 187
204 349 210 360 6 11 23 39 38 62 15 24 27 45 27 47 0 2 43 78 96 168 106 178
127 215 158 270 12 20 147 252 301 515 154 263 285 487 291 498 6 11 48 83 94
160 46 77 92 156 103 175 10 19 41 72 68 118 27 45 49 87 49 91 0 5 4 11 8 13
6 2 116 187 195 328 10 19 23 40 27 45 7 9 53 87 155 265 17 30 70 120 117
200 47 80 124 213 172 295 48 83 103 175 121 206 70 115 135 273 177 429 18
69 22 111 23 225 0 151 -15 213 -73 313 -25 44 -103 128 -157 170 -86 66 -296
144 -453 168 -20 3 -48 8 -62 11 -37 8 -503 11 -2265 18 -3180 11 -3912 15
-3995 19 -759 41 -1260 230 -1465 551 -119 186 -138 423 -54 661 16 45 74 162
130 260 56 99 117 208 137 244 45 82 89 160 102 180 5 8 17 31 27 50 9 19 20
37 23 40 4 3 28 46 54 95 27 50 52 95 56 100 4 6 28 46 52 90 25 44 78 139
118 210 40 72 101 180 135 240 34 61 72 128 85 150 55 98 677 1203 808 1435
14 25 124 219 244 433 120 213 234 418 255 455 46 84 90 162 103 182 5 8 19
33 31 54 32 59 411 738 431 772 62 104 150 301 174 389 101 379 -52 602 -472
689 -117 25 -341 37 -459 25z"/>
</g>
</svg>
